<svg width="34" height="34" viewBox="0 0 34 34" fill="none" xmlns="http://www.w3.org/2000/svg">
<g id="Group 224">
<path id="Vector" d="M7.78769 10.697C7.78769 16.0525 12.1292 20.394 17.4847 20.394C22.8402 20.394 27.1816 16.0525 27.1816 10.697C27.1816 5.3415 22.8402 1 17.4847 1C12.1292 1 7.78769 5.3415 7.78769 10.697Z" stroke="#2678F2"/>
<path id="Vector_2" d="M25.7273 13.606C29.9096 14.6996 33 18.5571 33 23.1477C33 28.589 28.6585 33 23.303 33C17.9475 33 13.6061 28.589 13.6061 23.1477C13.6061 21.9085 13.8312 20.7228 14.2423 19.6303" stroke="#2678F2"/>
<path id="Vector_3" opacity="0.5" d="M17.4849 30.4915C15.735 32.0514 13.4241 33 10.8909 33C5.42833 33 1.00001 28.589 1.00001 23.1477C1.00001 18.5571 4.15224 14.6996 8.41819 13.606" stroke="#2678F2"/>
</g>
</svg>
