<svg width="29" height="29" viewBox="0 0 29 29" fill="none" xmlns="http://www.w3.org/2000/svg">
<g id="happy-svgrepo-com 1" clip-path="url(#clip0_0_2146)">
<path id="Vector" d="M28.4331 14.5001C28.4331 16.3298 28.0727 18.1416 27.3725 19.8321C26.6723 21.5225 25.646 23.0585 24.3521 24.3524C23.0583 25.6462 21.5223 26.6725 19.8319 27.3727C18.1414 28.0729 16.3296 28.4333 14.4999 28.4333C12.6701 28.4333 10.8583 28.0729 9.16783 27.3727C7.47737 26.6725 5.94137 25.6462 4.64755 24.3524C3.35373 23.0585 2.32741 21.5225 1.6272 19.8321C0.926991 18.1416 0.566597 16.3298 0.566597 14.5001C0.566597 12.6703 0.926991 10.8585 1.6272 9.16803C2.32741 7.47757 3.35373 5.94158 4.64755 4.64776C5.94137 3.35394 7.47737 2.32762 9.16783 1.62741C10.8583 0.927197 12.6701 0.566803 14.4999 0.566803C16.3296 0.566803 18.1414 0.927197 19.8319 1.62741C21.5223 2.32762 23.0583 3.35394 24.3521 4.64776C25.646 5.94158 26.6723 7.47757 27.3725 9.16803C28.0727 10.8585 28.4331 12.6703 28.4331 14.5001Z" fill="#2678F2"/>
<path id="Vector_2" d="M11.5141 26.3763C19.2092 26.3763 25.4473 20.1382 25.4473 12.4431C25.4473 8.3319 23.6663 4.63712 20.8343 2.08682C25.3451 4.39317 28.4331 9.08596 28.4331 14.5C28.4331 22.1951 22.195 28.4332 14.4999 28.4332C10.916 28.4332 7.64854 27.0796 5.17975 24.8564C7.08021 25.8281 9.23307 26.3763 11.5141 26.3763Z" fill="#2678F2"/>
<path id="Vector_3" d="M12.4729 23.8556C15.5877 23.8556 18.1128 21.3305 18.1128 18.2157H6.83304C6.83304 21.3305 9.35814 23.8556 12.4729 23.8556Z" fill="#7F184C"/>
<path id="Vector_4" d="M12.361 21.5158C13.8856 20.8076 15.5773 20.9105 16.9492 21.6451C15.9184 22.9887 14.2972 23.8557 12.4729 23.8557C11.6949 23.8564 10.9253 23.6955 10.2128 23.3832C10.7205 22.5974 11.4486 21.9397 12.361 21.5158Z" fill="white"/>
<path id="Vector_5" d="M16.6304 18.2157V19.0961C16.6304 19.4673 16.3294 19.7682 15.9583 19.7682H8.77494C8.40372 19.7682 8.10284 19.4673 8.10284 19.0961V18.2157H16.6304Z" fill="#F2F2F2"/>
<path id="Vector_6" d="M20.4878 13.6374C21.5225 13.6374 22.3613 14.4763 22.3613 15.511H18.6142C18.6142 14.4763 19.4529 13.6374 20.4878 13.6374ZM4.14536 13.3864C5.18007 13.3864 6.01892 14.2252 6.01892 15.2599H2.27175C2.2718 14.2252 3.11065 13.3864 4.14536 13.3864Z" fill="#F9A880"/>
<path id="Vector_7" d="M18.627 10.1869C18.627 10.6379 18.4478 11.0704 18.1289 11.3893C17.81 11.7082 17.3775 11.8874 16.9265 11.8874C16.4755 11.8874 16.043 11.7082 15.7241 11.3893C15.4052 11.0704 15.226 10.6379 15.226 10.1869C15.226 9.96361 15.27 9.74249 15.3555 9.53618C15.4409 9.32987 15.5662 9.14241 15.7241 8.9845C15.882 8.8266 16.0694 8.70135 16.2757 8.61589C16.4821 8.53043 16.7032 8.48645 16.9265 8.48645C17.1498 8.48645 17.3709 8.53043 17.5772 8.61589C17.7835 8.70135 17.971 8.8266 18.1289 8.9845C18.2868 9.14241 18.4121 9.32987 18.4975 9.53618C18.583 9.74249 18.627 9.96361 18.627 10.1869Z" fill="white"/>
<path id="Vector_8" d="M9.05322 10.1869C9.05322 10.6379 8.87407 11.0704 8.55517 11.3893C8.23627 11.7082 7.80375 11.8874 7.35276 11.8874C6.90177 11.8874 6.46925 11.7082 6.15035 11.3893C5.83145 11.0704 5.65229 10.6379 5.65229 10.1869C5.65229 9.73592 5.83145 9.3034 6.15035 8.9845C6.46925 8.66561 6.90177 8.48645 7.35276 8.48645C7.80375 8.48645 8.23627 8.66561 8.55517 8.9845C8.87407 9.3034 9.05322 9.73592 9.05322 10.1869Z" fill="white"/>
<path id="Vector_9" d="M12.0455 6.00421C11.303 6.21434 10.5443 6.25114 9.93624 6.10652C9.32822 5.96189 8.92072 5.6477 8.80338 5.23304C8.68603 4.81839 8.86846 4.33725 9.31053 3.89546C9.7526 3.45368 10.4181 3.08743 11.1606 2.87731C11.9031 2.66718 12.6619 2.63038 13.2699 2.775C13.8779 2.91963 14.2854 3.23382 14.4027 3.64848C14.5201 4.06313 14.3377 4.54427 13.8956 4.98606C13.4535 5.42784 12.788 5.79409 12.0455 6.00421Z" fill="#2678F2"/>
<path id="Vector_10" d="M2.50799 6.34647C4.10939 3.9956 6.34041 2.1801 8.95981 1.09628C9.24902 0.976654 9.58065 1.11412 9.70033 1.40333C9.81995 1.69265 9.68254 2.02411 9.39328 2.14385C6.97852 3.14299 4.92167 4.817 3.44488 6.98475C1.93292 9.2045 1.13361 11.8032 1.13361 14.5001C1.13361 21.8704 7.12969 27.8664 14.4999 27.8664C21.8702 27.8664 27.8663 21.8702 27.8663 14.5C27.8663 7.12981 21.8703 1.13366 14.5 1.13366C14.1869 1.13366 13.9332 0.879856 13.9332 0.566859C13.9332 0.253863 14.1869 0 14.5 0C22.4954 0 29 6.50461 29 14.5C29 22.4954 22.4954 29 14.5 29C6.50461 29 0 22.4954 0 14.5C0 11.5745 0.867224 8.75505 2.50799 6.34647Z" fill="black"/>
<path id="Vector_11" d="M14.6588 10.1872C14.6588 8.93699 15.6759 7.91989 16.9261 7.91989C18.1763 7.91989 19.1934 8.93699 19.1934 10.1872C19.1934 11.4373 18.1763 12.4544 16.9261 12.4544C15.6759 12.4544 14.6588 11.4373 14.6588 10.1872ZM18.0598 10.1872C18.0598 9.56207 17.5512 9.0535 16.9261 9.0535C16.301 9.0535 15.7924 9.56207 15.7924 10.1872C15.7924 10.8122 16.301 11.3208 16.9261 11.3208C17.5512 11.3208 18.0598 10.8122 18.0598 10.1872ZM5.08531 10.1872C5.08531 8.93699 6.10241 7.91989 7.35258 7.91989C8.60275 7.91989 9.61985 8.93699 9.61985 10.1872C9.61985 11.4373 8.60275 12.4544 7.35258 12.4544C6.10241 12.4544 5.08531 11.4373 5.08531 10.1872ZM8.48624 10.1872C8.48624 9.56207 7.97766 9.0535 7.35258 9.0535C6.72749 9.0535 6.21892 9.56207 6.21892 10.1872C6.21892 10.8122 6.72749 11.3208 7.35258 11.3208C7.97766 11.3208 8.48624 10.8122 8.48624 10.1872ZM18.6793 18.2157C18.6793 21.6381 15.895 24.4224 12.4726 24.4224C9.05021 24.4224 6.26593 21.6381 6.26593 18.2157C6.26593 17.9027 6.51973 17.6489 6.83273 17.6489H18.1125C18.4255 17.6489 18.6793 17.9027 18.6793 18.2157ZM7.43097 18.7825C7.71372 21.3141 9.86686 23.2888 12.4726 23.2888C15.0783 23.2888 17.2315 21.3141 17.5142 18.7825H7.43097Z" fill="black"/>
<path id="Vector_12" d="M11.7573 0.955353C11.7573 1.10568 11.6976 1.24985 11.5913 1.35614C11.485 1.46244 11.3408 1.52216 11.1905 1.52216C11.0402 1.52216 10.896 1.46244 10.7897 1.35614C10.6834 1.24985 10.6237 1.10568 10.6237 0.955353C10.6237 0.805027 10.6834 0.660859 10.7897 0.554562C10.896 0.448266 11.0402 0.38855 11.1905 0.38855C11.3408 0.38855 11.485 0.448266 11.5913 0.554562C11.6976 0.660859 11.7573 0.805027 11.7573 0.955353Z" fill="black"/>
</g>
<defs>
<clipPath id="clip0_0_2146">
<rect width="29" height="29" fill="white" transform="matrix(-1 0 0 1 29 0)"/>
</clipPath>
</defs>
</svg>
