<svg width="19" height="20" viewBox="0 0 19 20" fill="none" xmlns="http://www.w3.org/2000/svg">
<path id="Instagram" d="M12.375 9.97501C12.375 10.5683 12.1991 11.1484 11.8694 11.6417C11.5398 12.1351 11.0712 12.5196 10.5231 12.7466C9.97487 12.9737 9.37167 13.0331 8.78973 12.9174C8.20779 12.8016 7.67324 12.5159 7.25368 12.0963C6.83412 11.6768 6.5484 11.1422 6.43264 10.5603C6.31689 9.97833 6.3763 9.37513 6.60336 8.82696C6.83042 8.27878 7.21494 7.81024 7.70829 7.4806C8.20164 7.15095 8.78166 6.97501 9.375 6.97501C10.1699 6.97748 10.9315 7.29434 11.4936 7.85642C12.0557 8.41849 12.3725 9.18012 12.375 9.97501ZM18.75 5.85001V14.1C18.75 15.4924 18.1969 16.8278 17.2123 17.8123C16.2277 18.7969 14.8924 19.35 13.5 19.35H5.25C3.85761 19.35 2.52226 18.7969 1.53769 17.8123C0.553123 16.8278 0 15.4924 0 14.1V5.85001C0 4.45762 0.553123 3.12226 1.53769 2.1377C2.52226 1.15313 3.85761 0.600006 5.25 0.600006H13.5C14.8924 0.600006 16.2277 1.15313 17.2123 2.1377C18.1969 3.12226 18.75 4.45762 18.75 5.85001ZM13.875 9.97501C13.875 9.08499 13.6111 8.21496 13.1166 7.47494C12.6221 6.73492 11.9193 6.15814 11.0971 5.81755C10.2748 5.47695 9.37001 5.38784 8.49709 5.56147C7.62418 5.73511 6.82236 6.16369 6.19302 6.79303C5.56368 7.42236 5.1351 8.22418 4.96147 9.0971C4.78783 9.97001 4.87695 10.8748 5.21754 11.6971C5.55814 12.5193 6.13491 13.2222 6.87493 13.7166C7.61495 14.2111 8.48498 14.475 9.375 14.475C10.5685 14.475 11.7131 14.0009 12.557 13.157C13.4009 12.3131 13.875 11.1685 13.875 9.97501ZM15.375 5.10001C15.375 4.8775 15.309 4.66 15.1854 4.47499C15.0618 4.28998 14.8861 4.14579 14.6805 4.06064C14.475 3.97549 14.2488 3.95321 14.0305 3.99662C13.8123 4.04003 13.6118 4.14718 13.4545 4.30451C13.2972 4.46184 13.19 4.6623 13.1466 4.88053C13.1032 5.09876 13.1255 5.32496 13.2106 5.53053C13.2958 5.73609 13.44 5.91179 13.625 6.03541C13.81 6.15903 14.0275 6.22501 14.25 6.22501C14.5484 6.22501 14.8345 6.10648 15.0455 5.8955C15.2565 5.68452 15.375 5.39837 15.375 5.10001Z" fill="white"/>
</svg>
