<svg width="27" height="37" viewBox="0 0 27 37" fill="none" xmlns="http://www.w3.org/2000/svg">
<g id="SVGRepo_iconCarrier">
<path id="Vector" fill-rule="evenodd" clip-rule="evenodd" d="M6.47852 27.255L5.82493 26.8019L5.28516 27.3557C3.97808 28.6394 3.40977 29.7218 3.69393 31.0809L4.12011 33.0191L5.31347 31.3578C5.31347 31.3578 5.31347 31.3326 5.3419 31.3326C4.94415 32.2136 4.74527 32.9688 4.68842 33.5477C4.63156 34.479 4.97257 35.1334 5.59763 35.511L6.56369 36.1151L6.93313 35.1083C7.04672 34.8314 7.27402 34.6049 7.5866 34.3531C7.98435 34.0259 8.49581 33.6987 9.00727 33.3715C10.2006 32.566 11.394 31.5843 11.9055 30.1497L12.1896 29.319L11.2236 29.168C8.92199 28.7652 7.67188 28.1108 6.47852 27.255ZM11.0247 29.8979C8.55267 29.4952 7.21728 28.7652 5.93863 27.8843C7.24559 28.7904 8.55267 29.4952 11.0247 29.8979ZM8.21166 16.5323L11.252 10.6926L20.6284 5.53264L22.9299 14.8458L19.2929 22.0698C20.7989 24.2597 20.6569 26.7013 18.0996 29.621L16.3948 27.8843L16.3664 27.9094L16.1391 28.0605C14.6901 29.0169 11.9623 29.0169 9.54716 28.1359C7.132 27.2801 5.08617 25.5937 4.74527 23.6052L4.68842 23.3284L5.11459 22.4977L2.15967 22.1705C3.32461 18.5207 5.42718 16.8595 8.21166 16.5323ZM5.7965 23.4542C5.85335 23.8569 6.0238 24.2345 6.25122 24.6121V24.6373C6.13751 24.4359 6.0238 24.2345 5.93863 24.0331C5.88178 23.8318 5.82493 23.6304 5.7965 23.4542ZM24.0381 19.5779L22.731 19.15C22.5606 19.0997 22.3901 19.1249 22.2764 19.2507C22.1627 19.3514 22.106 19.5024 22.1627 19.6534L22.589 20.7357L21.8787 21.4909C21.765 21.5916 21.7365 21.7677 21.7934 21.8936C21.8502 22.0195 21.9923 22.1202 22.1627 22.1453L23.4982 22.2461L24.2938 23.1773C24.379 23.278 24.5495 23.3535 24.72 23.3284C24.8904 23.3032 25.0042 23.2025 25.0609 23.0766L25.4588 22.1202L26.6805 21.8433C26.851 21.8182 26.9647 21.6923 26.993 21.5412C27.0214 21.3903 26.9647 21.2392 26.8226 21.1636L25.7713 20.4337L25.7429 19.3514C25.7429 19.2003 25.6576 19.0745 25.5156 19.0241C25.3735 18.9486 25.203 18.9486 25.0893 19.0241L24.0381 19.5779ZM4.80212 11.1961L3.60876 10.8437C3.4382 10.7934 3.26775 10.8437 3.15404 10.9444C3.04045 11.045 3.01202 11.2213 3.06888 11.347L3.49505 12.3036L2.89831 12.9832C2.78472 13.1091 2.78472 13.26 2.84157 13.3859C2.89831 13.5118 3.04045 13.6125 3.2109 13.6125L4.40426 13.6879L5.14302 14.4934C5.25673 14.5942 5.39875 14.6445 5.5692 14.6193C5.73976 14.5941 5.85336 14.4934 5.91021 14.3676L6.22279 13.5118L7.30245 13.26C7.4729 13.2097 7.5866 13.1091 7.61503 12.958C7.64346 12.807 7.5866 12.656 7.44458 12.5804L6.47852 11.9512L6.42167 10.9947C6.42167 10.8688 6.33639 10.743 6.19437 10.6675C6.05223 10.592 5.88178 10.6171 5.76819 10.6926L4.80212 11.1961ZM15.2298 2.83934L14.0365 2.48701C13.866 2.4367 13.6956 2.48701 13.5819 2.58765C13.4683 2.68838 13.4398 2.8646 13.4966 2.99039L13.9229 3.94693L13.3261 4.62652C13.2125 4.75232 13.2125 4.90337 13.2693 5.02926C13.3261 5.15506 13.4683 5.25579 13.6387 5.25579L14.8321 5.33127L15.5993 6.13676C15.7129 6.23739 15.855 6.28781 16.0254 6.26265C16.1959 6.23739 16.3096 6.13676 16.3664 6.01086L16.6789 5.15506L17.7587 4.90337C17.9291 4.85305 18.0428 4.75231 18.0712 4.60136C18.0996 4.45031 18.0428 4.29926 17.9007 4.22378L16.9346 3.59451L16.8778 2.63807C16.8778 2.51217 16.7926 2.38628 16.6505 2.3108C16.5085 2.23532 16.338 2.26048 16.2243 2.33596L15.2298 2.83934Z" fill="#2A2941"/>
<path id="Vector_2" fill-rule="evenodd" clip-rule="evenodd" d="M23.1005 17.6651L24.3223 17.0106L24.3506 18.2692L25.5724 19.125L24.1233 19.4522L23.6402 20.61L22.731 19.5529L21.1968 19.4271L22.0776 18.4957L21.5661 17.212L23.1005 17.6651Z" fill="#32EDBB"/>
<path id="Vector_3" fill-rule="evenodd" clip-rule="evenodd" d="M23.0433 17.313L21.7078 16.8851C21.5374 16.8347 21.3669 16.8598 21.2532 16.9857C21.1396 17.0865 21.0828 17.2374 21.1396 17.3885L21.5658 18.4708L20.8555 19.226C20.7418 19.3266 20.7133 19.5028 20.7986 19.6286C20.8555 19.7545 20.9975 19.8553 21.168 19.8804L22.5034 19.9811L23.299 20.9124C23.3842 21.0131 23.5548 21.0885 23.7252 21.0634C23.8957 21.0382 24.0094 20.9376 24.0662 20.8117L24.464 19.8553L25.6858 19.5783C25.8562 19.5532 25.9699 19.4274 25.9984 19.2763C26.0267 19.1253 25.9699 18.9742 25.8278 18.8987L24.7766 18.1688L24.7481 17.0865C24.7481 16.9354 24.6629 16.8095 24.5208 16.7592C24.3787 16.6837 24.2083 16.6837 24.0945 16.7592L23.0433 17.313ZM23.1002 17.7409L24.3219 17.0865L24.3503 18.3449L25.5721 19.2007L24.123 19.528L23.6399 20.6858L22.7307 19.6035L21.1964 19.4777L22.0773 18.5463L21.5658 17.2626L23.1002 17.7409Z" fill="#2A2941"/>
<path id="Vector_4" fill-rule="evenodd" clip-rule="evenodd" d="M11.7065 14.5689L8.15478 20.5595L1.19336 19.754C2.89818 14.4179 6.67726 13.3355 11.7065 14.5689Z" fill="#165FAB"/>
<path id="Vector_5" fill-rule="evenodd" clip-rule="evenodd" d="M8.58097 21.5667L12.9282 14.242L11.8769 13.9903C9.12085 13.3107 6.7057 13.3107 4.74514 14.1665C2.78459 15.0223 1.22179 16.7842 0.284156 19.7292L0 20.585L8.58097 21.5667ZM11.6212 14.7454L8.06951 20.7361L1.1082 19.9306C2.81302 14.5944 6.59199 13.4869 11.6212 14.7454Z" fill="#2A2941"/>
<path id="Vector_6" fill-rule="evenodd" clip-rule="evenodd" d="M3.92141 9.4594L5.00117 8.85529L5.08634 9.98794L6.22297 10.7179L4.94432 11.0451L4.54657 12.1023L3.66568 11.171L2.27344 11.0954L3.04062 10.2396L2.52917 9.08182L3.92141 9.4594Z" fill="#165FAB"/>
<path id="Vector_7" fill-rule="evenodd" clip-rule="evenodd" d="M3.89283 8.85546L2.69947 8.50304C2.52902 8.45272 2.35857 8.50304 2.24486 8.60367C2.13127 8.70441 2.10284 8.88062 2.15958 9.00641L2.58587 9.96295L1.98914 10.6425C1.87554 10.7683 1.87554 10.9194 1.93228 11.0453C1.98914 11.1711 2.13127 11.2718 2.30172 11.2718L3.49508 11.3473L4.26227 12.1528C4.37586 12.2534 4.518 12.3038 4.68845 12.2787C4.8589 12.2534 4.9726 12.1528 5.02946 12.0269L5.34193 11.1711L6.39327 10.9194C6.56372 10.8691 6.67742 10.7683 6.70585 10.6174C6.73416 10.4663 6.67742 10.3153 6.53529 10.2398L5.56923 9.61053L5.51249 8.65409C5.51249 8.52819 5.42721 8.4023 5.28507 8.32682C5.14305 8.25135 4.9726 8.2765 4.85889 8.35198L3.89283 8.85546ZM3.94969 9.28336L5.02946 8.67925L5.11462 9.8119L6.25113 10.5418L4.9726 10.8691L4.57474 11.9262L3.69396 10.995L2.30172 10.9194L3.0689 10.0636L2.55745 8.90578L3.94969 9.28336Z" fill="#2A2941"/>
<path id="Vector_8" fill-rule="evenodd" clip-rule="evenodd" d="M11.1665 9.08197L12.8998 10.8439L6.73394 22.3218L7.4727 22.6238L13.6101 11.1711L17.3891 12.7317L11.2234 24.2096L11.9621 24.5116L18.2131 12.8323L20.9124 12.48L14.633 24.9395C12.161 26.5756 5.45541 24.5116 4.91553 21.1135L11.1665 9.08197Z" fill="#FCAC15"/>
<path id="Vector_9" fill-rule="evenodd" clip-rule="evenodd" d="M10.996 9.08182L11.0245 9.00635L18.8666 4.67691L20.7987 12.3792L20.7418 12.4799L18.0426 12.8323L11.7917 24.5115L11.0529 24.2094L17.2186 12.7316L13.4396 11.171L7.30224 22.6237L6.56348 22.3216L12.7293 10.8437L10.996 9.08182Z" fill="#F5F5F5"/>
<path id="Vector_10" fill-rule="evenodd" clip-rule="evenodd" d="M14.3775 0.951618L15.4571 0.347504L15.5424 1.48026L16.6789 2.21016L15.4004 2.53743L15.0025 3.5946L14.1217 2.66322L12.7295 2.58775L13.4966 1.73194L12.9852 0.574034L14.3775 0.951618Z" fill="#FEC34E"/>
<path id="Vector_11" fill-rule="evenodd" clip-rule="evenodd" d="M14.3207 0.574183L13.1273 0.221758C12.9568 0.17144 12.7863 0.221758 12.6727 0.322494C12.559 0.423129 12.5305 0.599342 12.5874 0.725237L13.0136 1.68168L12.417 2.36126C12.3032 2.48716 12.3032 2.63821 12.3601 2.76401C12.417 2.8899 12.559 2.99054 12.7295 2.99054L13.9229 3.06612L14.69 3.8716C14.8037 3.97224 14.9457 4.02255 15.1163 3.9974C15.2867 3.97224 15.4003 3.8716 15.4572 3.74571L15.7697 2.8899L16.8211 2.63821C16.9915 2.5878 17.1051 2.48716 17.1336 2.33611C17.162 2.18515 17.1051 2.0341 16.9631 1.95862L15.997 1.32935L15.9402 0.372811C15.9402 0.247017 15.855 0.121122 15.7129 0.045646C15.5709 -0.0299315 15.4003 -0.00477222 15.2867 0.0708052L14.3207 0.574183ZM14.3775 1.00208L15.4572 0.397971L15.5424 1.53072L16.679 2.26063L15.4003 2.5879L15.0026 3.64497L14.1218 2.71369L12.7295 2.63821L13.4966 1.78241L12.9852 0.624501L14.3775 1.00208Z" fill="#2A2941"/>
<path id="Vector_12" fill-rule="evenodd" clip-rule="evenodd" d="M10.3711 8.40241L3.83594 21.013L3.89279 21.2899C4.20537 23.2783 6.27952 24.9648 8.69468 25.8206C11.1383 26.7015 13.8376 26.7015 15.2867 25.7451L15.514 25.594L22.0775 12.5556L19.7475 3.24243L10.3711 8.40241ZM4.91571 21.1388L11.1951 9.03168L19.0372 4.72751L20.9693 12.4297L14.6616 24.9648C12.1896 26.6009 5.48402 24.5369 4.91571 21.1388Z" fill="#2A2941"/>
<path id="Vector_13" fill-rule="evenodd" clip-rule="evenodd" d="M5.28482 25.6441C4.20517 26.7013 3.66528 27.5822 3.89258 28.6897C4.57449 27.7081 5.54055 27.2551 6.47819 27.5068C4.80179 30.2252 4.43247 32.0123 5.42696 32.6164C5.99516 31.0306 9.49008 30.2 10.3709 27.6577C7.89897 27.2551 6.56347 26.5251 5.28482 25.6441Z" fill="#4840FF"/>
<path id="Vector_14" fill-rule="evenodd" clip-rule="evenodd" d="M5.59726 25.1159L4.94378 24.6629L4.4039 25.2166C3.09694 26.5003 2.52863 27.5826 2.81279 28.9419L3.23896 30.88L4.43233 29.2187C4.43233 29.2187 4.43233 29.1936 4.46075 29.1936C4.063 30.0745 3.86402 30.8297 3.80727 31.4086C3.75042 32.3399 4.11974 32.9944 4.71648 33.372L5.68255 33.976L6.05187 32.9692C6.16558 32.6923 6.39288 32.4657 6.70546 32.214C7.10321 31.8869 7.61467 31.5596 8.12613 31.2323C9.31949 30.427 10.5129 29.4453 11.0243 28.0105L11.3368 27.1799L10.3707 27.0289C8.04085 26.601 6.79063 25.9466 5.59726 25.1159ZM5.05738 25.72C3.97772 26.7772 3.43784 27.6582 3.66514 28.7657C4.34705 27.784 5.31311 27.3309 6.25074 27.5826C4.57435 30.3011 4.20502 32.0883 5.19951 32.6923C5.76771 31.1066 9.26264 30.2759 10.1434 27.7337C7.67152 27.3309 6.36445 26.6262 5.05738 25.72Z" fill="#2A2941"/>
<path id="Vector_15" fill-rule="evenodd" clip-rule="evenodd" d="M16.2811 17.5899L13.1841 23.1778L17.3892 27.4569C20.8842 23.4799 19.8612 20.3335 16.2811 17.5899Z" fill="#165FAB"/>
<path id="Vector_16" fill-rule="evenodd" clip-rule="evenodd" d="M16.8207 16.8095L15.9683 16.1551L12.104 23.1274L17.3889 28.5139L18.0425 27.7587C20.0029 25.5438 20.6281 23.5553 20.344 21.7681C20.0029 19.9559 18.7812 18.3198 16.8207 16.8095ZM16.224 17.3885L13.1269 22.9764L17.3321 27.2554C20.827 23.2784 19.8041 20.1321 16.224 17.3885Z" fill="#2A2941"/>
<path id="Vector_17" fill-rule="evenodd" clip-rule="evenodd" d="M16.48 6.23767C17.5598 6.99274 18.6678 7.39548 19.8612 7.47096L19.1793 4.70218L16.48 6.23767Z" fill="#165FAB"/>
</g>
</svg>
