<svg width="22" height="18" viewBox="0 0 22 18" fill="none" xmlns="http://www.w3.org/2000/svg">
<path id="Twitter" d="M21.67 2.47501C20.9 2.82501 20.07 3.05501 19.21 3.16501C20.09 2.63501 20.77 1.79501 21.09 0.785006C20.26 1.28501 19.34 1.63501 18.37 1.83501C17.58 0.975006 16.47 0.475006 15.21 0.475006C12.86 0.475006 10.94 2.39501 10.94 4.76501C10.94 5.10501 10.98 5.43501 11.05 5.74501C7.49 5.56501 4.32 3.85501 2.21 1.26501C1.84 1.89501 1.63 2.63501 1.63 3.41501C1.63 4.90501 2.38 6.22501 3.54 6.97501C2.83 6.97501 2.17 6.77501 1.59 6.47501V6.50501C1.59 8.58501 3.07 10.325 5.03 10.715C4.40073 10.8872 3.7401 10.9112 3.1 10.785C3.37161 11.6375 3.90354 12.3834 4.62102 12.9179C5.3385 13.4525 6.20545 13.7487 7.1 13.765C5.58363 14.9654 3.704 15.6143 1.77 15.605C1.43 15.605 1.09 15.585 0.75 15.545C2.65 16.765 4.91 17.475 7.33 17.475C15.21 17.475 19.54 10.935 19.54 5.26501C19.54 5.07501 19.54 4.89501 19.53 4.70501C20.37 4.10501 21.09 3.34501 21.67 2.47501Z" fill="white"/>
</svg>
