<svg width="263" height="20" viewBox="0 0 263 20" fill="none" xmlns="http://www.w3.org/2000/svg">
<path fill-rule="evenodd" clip-rule="evenodd" d="M182.764 0.365757C173.529 0.274736 165.759 0.177766 161.749 0.0916923C153.827 -0.0783422 135.034 -0.00529909 119.984 0.256192C108.415 0.456472 89.4547 0.957118 72.242 1.47221C67.4288 1.43647 62.5535 1.39174 57.7492 1.33809C14.8297 0.858907 9.32448 0.930555 7.15262 1.99659C4.90273 3.10156 4.89421 3.19559 7.04158 3.22947C7.63071 3.23876 8.23504 3.30563 8.7519 3.40794C7.79347 3.56009 7.23877 3.74182 6.81858 3.96093C6.72492 4.00981 6.63527 4.05677 6.54963 4.10187C3.24112 3.80085 2.76371 3.97056 3.29769 5.18429C3.41734 5.45618 3.40706 5.76927 3.28959 6.08975C2.96774 6.19851 2.87742 6.3919 2.94694 6.69406C2.62526 7.11244 2.14099 7.50664 1.54652 7.79844C-0.670458 8.88668 -0.608796 8.97953 2.41571 9.1079L2.55867 9.11387C2.28754 9.38902 1.94665 9.64236 1.55128 9.84855C-0.601611 10.9712 -0.534602 11.0631 2.49601 11.1437C4.29004 11.1913 6.20823 11.1954 6.75859 11.1528C7.21504 11.1175 8.77045 11.6518 10.4715 12.4072C9.16665 12.5034 9.60747 12.6526 11.4644 13.0145C11.665 13.0536 11.8616 13.0953 12.0535 13.1394C12.9553 13.5366 13.9104 13.8608 14.9184 14.1119C15.9633 14.6469 16.1506 15.1332 14.8306 15.1574C10.9748 15.2279 15.7359 16.5629 24.7101 17.9276C34.4746 19.4124 35.0201 19.4135 82.6215 18.0487C92.7626 17.7579 103.19 17.4212 112.657 17.0855C117.974 17.1949 124.408 17.2876 130.987 17.3496C135.983 17.4744 141.05 17.5824 145.762 17.6609C173.546 18.1256 242.975 18.3433 233.725 17.9367C225.855 17.5907 229.951 16.8723 242.397 16.4158C248.814 16.1804 254.303 15.6472 254.597 15.2309C254.89 14.8146 256.838 14.5009 258.925 14.5338C261.751 14.5784 262.742 14.2291 262.804 13.1668C262.827 12.7616 262.664 12.4408 262.24 12.176C262.779 11.9506 263 11.6022 263 11.0948C263 10.1343 261.981 9.66376 258.928 9.32184C260.265 9.3018 260.565 9.22742 259.982 9.03525C260.405 8.86212 260.347 8.51817 260.015 7.92605C259.902 7.72461 259.858 7.49735 259.875 7.25903C260.346 7.20897 260.343 7.13061 259.916 7.00216C260.068 6.37656 260.603 5.71275 261.394 5.25864C263.415 4.09832 263.343 4.00772 260.387 3.98113C258.768 3.96662 257.047 3.99128 256.377 4.03657C255.921 3.77274 254.678 3.40256 252.805 2.9728C252.37 2.79196 251.92 2.5954 251.473 2.38885C248.945 1.21963 246.034 0.651893 242.746 0.686584C242.012 0.694342 241.061 0.699615 239.922 0.7026C233.14 -0.133299 224.935 -0.0611274 185.827 0.333746C184.809 0.344031 183.787 0.354709 182.764 0.365757ZM22.3978 5.05993C22.2353 5.07549 22.0743 5.09116 21.915 5.10696C21.5227 5.06375 21.1328 5.01855 20.7467 4.97148C21.3003 4.9987 21.8516 5.02827 22.3978 5.05993ZM12.0784 3.08877C12.9552 3.03588 13.9796 2.98851 15.1827 2.94574C12.9664 2.87936 12.0134 2.90958 12.0784 3.08877Z" fill="#2678F2" fill-opacity="0.4"/>
</svg>
