<svg width="40" height="40" viewBox="0 0 40 40" fill="none" xmlns="http://www.w3.org/2000/svg">
<g id="user-heart-svgrepo-com (1) 1">
<path id="Vector" d="M26.1302 22.5047C25.3417 22.5142 24.6068 22.543 23.9663 22.629C22.8948 22.7732 21.7222 23.1175 20.753 24.0865C19.784 25.0555 19.4397 26.2283 19.2957 27.2998C19.1662 28.2627 19.1663 29.4392 19.1665 30.69V30.9767C19.1663 32.2275 19.1662 33.404 19.2957 34.3668C19.3967 35.1187 19.5963 35.9203 20.0413 36.6667C20.0275 36.6667 20.0137 36.6667 19.9998 36.6667C6.6665 36.6667 6.6665 33.3088 6.6665 29.1667C6.6665 25.0245 12.636 21.6667 19.9998 21.6667C22.2102 21.6667 24.2948 21.9692 26.1302 22.5047Z" fill="#2678F2"/>
<path id="Vector_2" fill-rule="evenodd" clip-rule="evenodd" d="M22.5208 35.8123C23.375 36.6667 24.75 36.6667 27.4998 36.6667C30.2497 36.6667 31.6247 36.6667 32.4788 35.8123C33.3332 34.9582 33.3332 33.5832 33.3332 30.8333C33.3332 28.0835 33.3332 26.7085 32.4788 25.8543C31.6247 25 30.2497 25 27.4998 25C24.75 25 23.375 25 22.5208 25.8543C21.6665 26.7085 21.6665 28.0835 21.6665 30.8333C21.6665 33.5832 21.6665 34.9582 22.5208 35.8123ZM25.8775 33.2942C24.7073 32.4563 23.3332 31.4722 23.3332 29.7663C23.3332 27.8832 25.6248 26.5475 27.4998 28.358C29.3748 26.5475 31.6665 27.8832 31.6665 29.7663C31.6665 31.4722 30.2923 32.4563 29.1222 33.2942C29.0007 33.3812 28.8812 33.4667 28.7658 33.5513C28.3332 33.8682 27.9165 34.1667 27.4998 34.1667C27.0832 34.1667 26.6665 33.8682 26.2338 33.5513C26.1185 33.4667 25.999 33.3812 25.8775 33.2942Z" fill="#2678F2"/>
<path id="Vector_3" d="M26.6668 10C26.6668 13.6819 23.682 16.6667 20.0002 16.6667C16.3183 16.6667 13.3335 13.6819 13.3335 10C13.3335 6.31811 16.3183 3.33334 20.0002 3.33334C23.682 3.33334 26.6668 6.31811 26.6668 10Z" fill="#2678F2"/>
</g>
</svg>
