<svg width="61" height="56" viewBox="0 0 61 56" fill="none" xmlns="http://www.w3.org/2000/svg">
<g id="Vector 12">
<path d="M0 13.1228V3.19251C0 0.883922 2.49843 -0.559552 4.49843 0.593531L27.7817 14.0173C28.7108 14.5529 29.2832 15.5438 29.2832 16.6163V53C29.2832 54.6569 27.9401 56 26.2832 56H17.6011C15.9442 56 14.6011 54.6569 14.6011 53V24.802C14.6011 23.7152 14.0132 22.7133 13.0644 22.1832L1.53662 15.7416C0.587839 15.2115 0 14.2096 0 13.1228Z" fill="white"/>
<path d="M61 13.167V3.23644C61 0.91813 58.4826 -0.524096 56.4827 0.648437L33.6861 14.0137C32.7677 14.5522 32.2035 15.5371 32.2035 16.6017V25.3029C32.2035 26.3119 32.7106 27.2533 33.5533 27.8083L38.5341 31.089C40.3764 32.3025 40.323 35.0224 38.4346 36.1626L33.6528 39.0497C32.7533 39.5928 32.2035 40.5671 32.2035 41.6179V50.8895C32.2035 53.1797 34.6661 54.6253 36.6657 53.509L59.4623 40.7832C60.4117 40.2532 61 39.251 61 38.1637V28.6469C61 27.5775 60.4307 26.5889 59.5056 26.0521L55.14 23.5189C53.1543 22.3667 53.1459 19.502 55.1249 18.3382L59.5208 15.7529C60.4373 15.214 61 14.2302 61 13.167Z" fill="white"/>
</g>
</svg>
