<svg width="21" height="15" viewBox="0 0 21 15" fill="none" xmlns="http://www.w3.org/2000/svg">
<path id="Youtube" d="M8.66992 10.975L13.8599 7.97501L8.66992 4.97501V10.975ZM20.2299 3.14501C20.3599 3.61501 20.4499 4.24501 20.5099 5.04501C20.5799 5.84501 20.6099 6.53501 20.6099 7.13501L20.6699 7.97501C20.6699 10.165 20.5099 11.775 20.2299 12.805C19.9799 13.705 19.3999 14.285 18.4999 14.535C18.0299 14.665 17.1699 14.755 15.8499 14.815C14.5499 14.885 13.3599 14.915 12.2599 14.915L10.6699 14.975C6.47992 14.975 3.86992 14.815 2.83992 14.535C1.93992 14.285 1.35992 13.705 1.10992 12.805C0.979922 12.335 0.889922 11.705 0.829922 10.905C0.759922 10.105 0.729922 9.41501 0.729922 8.81501L0.669922 7.97501C0.669922 5.78501 0.829922 4.17501 1.10992 3.14501C1.35992 2.24501 1.93992 1.66501 2.83992 1.41501C3.30992 1.28501 4.16992 1.19501 5.48992 1.13501C6.78992 1.06501 7.97992 1.03501 9.07992 1.03501L10.6699 0.975006C14.8599 0.975006 17.4699 1.13501 18.4999 1.41501C19.3999 1.66501 19.9799 2.24501 20.2299 3.14501Z" fill="white"/>
</svg>
